# xmcd
#
# Track frame offsets:
#	150
#	17087
#	31146
#	48885
#	65170
#	78461
#	95381
#	108195
#	127978
#	141137
#	159223
#
# Disc length: 2277 seconds
# Revision: 0
# Processed by: cddbd v1.5.2PL0 Copyright (c) Steve Scherf et al.
# Submitted via: dBpowerAMP V12.0
#
DISCID=8108e30b
DTITLE=Amanda Cook - Point Of No Return
DYEAR=2019
DGENRE=Americana
TTITLE0=Point of No Return
TTITLE1=You Were Mine
TTITLE2=Time to Say Goodbye
TTITLE3=Good Enough (Aint Good Enough)
TTITLE4=Calhoun County
TTITLE5=Sarah, Dear
TTITLE6=Lonesome Soul
TTITLE7=Standing 'Cross the River
TTITLE8=Two Acres at a Time
TTITLE9=My Favorite Memory
TTITLE10=Will You Be Leaving
EXTD=
EXTT0=
EXTT1=
EXTT2=
EXTT3=
EXTT4=
EXTT5=
EXTT6=
EXTT7=
EXTT8=
EXTT9=
EXTT10=
PLAYORDER=
